<mxfile host="app.diagrams.net" modified="2020-11-13T04:02:18.129Z" agent="5.0 (Windows)" etag="8zLiblDB1wjx1TaZe-Rw" version="13.9.7" type="github" pages="2">
  <diagram id="NA0KZxk3qrtfwM2OW_Ud" name="masuk">
    <mxGraphModel dx="1038" dy="1647" grid="1" gridSize="10" guides="1" tooltips="1" connect="1" arrows="1" fold="1" page="1" pageScale="1" pageWidth="850" pageHeight="1100" background="none" math="0" shadow="0">
      <root>
        <mxCell id="0" />
        <mxCell id="1" parent="0" />
        <mxCell id="eQw3OcEAn6oPx84qbfoO-1" value="&lt;p style=&quot;margin: 4px 0px 0px ; text-align: center ; font-size: 13px&quot;&gt;&lt;font style=&quot;font-size: 13px&quot;&gt;&lt;b&gt;Kegiatan 1&lt;br&gt;&lt;/b&gt;&lt;/font&gt;&lt;/p&gt;&lt;hr style=&quot;font-size: 13px&quot; size=&quot;1&quot;&gt;&lt;p style=&quot;margin: 0px 0px 0px 4px ; font-size: 13px&quot;&gt;&lt;font style=&quot;font-size: 13px&quot;&gt;+ Data PLP&lt;br&gt;&lt;/font&gt;&lt;/p&gt;&lt;p style=&quot;margin: 0px 0px 0px 4px ; font-size: 13px&quot;&gt;&lt;font style=&quot;font-size: 13px&quot;&gt;+ Surat Jalan&lt;br&gt;&lt;/font&gt;&lt;/p&gt;&lt;hr style=&quot;font-size: 13px&quot; size=&quot;1&quot;&gt;&lt;p style=&quot;margin: 0px 0px 0px 4px ; font-size: 13px&quot;&gt;&lt;font style=&quot;font-size: 13px&quot;&gt;+ Menerima data Pemindahan Lokasi &lt;br&gt;&lt;/font&gt;&lt;/p&gt;&lt;p style=&quot;margin: 0px 0px 0px 4px ; font-size: 13px&quot;&gt;&lt;font style=&quot;font-size: 13px&quot;&gt;&amp;nbsp;&amp;nbsp; Penumpukan (PLP)&amp;nbsp; dari beacukai()&lt;/font&gt;&lt;/p&gt;&lt;p style=&quot;margin: 0px 0px 0px 4px ; font-size: 13px&quot;&gt;&lt;font style=&quot;font-size: 13px&quot;&gt;+ Menerima surat jalan lini satu dari supir truk()&lt;br&gt;&lt;/font&gt;&lt;/p&gt;" style="verticalAlign=top;align=left;overflow=fill;fontSize=12;fontFamily=Helvetica;html=1;fillColor=#FAE5C7;strokeColor=#0F8B8D;fontColor=#143642;" parent="1" vertex="1">
          <mxGeometry x="60" y="-1000" width="280" height="160" as="geometry" />
        </mxCell>
        <mxCell id="eQw3OcEAn6oPx84qbfoO-8" value="&lt;p style=&quot;margin: 4px 0px 0px ; text-align: center ; font-size: 13px&quot;&gt;&lt;font style=&quot;font-size: 13px&quot;&gt;&lt;b&gt;Kegiatan 2&lt;br&gt;&lt;/b&gt;&lt;/font&gt;&lt;/p&gt;&lt;hr style=&quot;font-size: 13px&quot; size=&quot;1&quot;&gt;&lt;p style=&quot;margin: 0px 0px 0px 4px ; font-size: 13px&quot;&gt;&lt;font style=&quot;font-size: 13px&quot;&gt;+ Data Kontainer Masuk&lt;/font&gt;&lt;/p&gt;&lt;hr style=&quot;font-size: 13px&quot; size=&quot;1&quot;&gt;&lt;p style=&quot;margin: 0px 0px 0px 4px ; font-size: 13px&quot;&gt;&lt;font style=&quot;font-size: 13px&quot;&gt;+ Mencatat data kontainer masuk()&lt;/font&gt;&lt;/p&gt;" style="verticalAlign=top;align=left;overflow=fill;fontSize=12;fontFamily=Helvetica;html=1;fillColor=#FAE5C7;strokeColor=#0F8B8D;fontColor=#143642;" parent="1" vertex="1">
          <mxGeometry x="380" y="-1000" width="280" height="160" as="geometry" />
        </mxCell>
        <mxCell id="eQw3OcEAn6oPx84qbfoO-9" value="&lt;p style=&quot;margin: 4px 0px 0px ; text-align: center ; font-size: 13px&quot;&gt;&lt;font style=&quot;font-size: 13px&quot;&gt;&lt;b&gt;Kegiatan 3&lt;br&gt;&lt;/b&gt;&lt;/font&gt;&lt;/p&gt;&lt;hr style=&quot;font-size: 13px&quot; size=&quot;1&quot;&gt;&lt;p style=&quot;margin: 0px 0px 0px 4px ; font-size: 13px&quot;&gt;&lt;font style=&quot;font-size: 13px&quot;&gt;+ SP2/Tila Cargo Masuk&lt;/font&gt;&lt;/p&gt;&lt;p style=&quot;margin: 0px 0px 0px 4px ; font-size: 13px&quot;&gt;&lt;font style=&quot;font-size: 13px&quot;&gt;+ Data Kontainer Penimbunan&lt;/font&gt;&lt;/p&gt;&lt;p style=&quot;margin: 0px 0px 0px 4px ; font-size: 13px&quot;&gt;&lt;font style=&quot;font-size: 13px&quot;&gt;+ Data Rekap Laporan&lt;br&gt;&lt;/font&gt;&lt;/p&gt;&lt;hr style=&quot;font-size: 13px&quot; size=&quot;1&quot;&gt;&lt;p style=&quot;margin: 0px 0px 0px 4px ; font-size: 13px&quot;&gt;&lt;font style=&quot;font-size: 13px&quot;&gt;+ Membuat SP2/Tila Cargo Masuk()&lt;/font&gt;&lt;/p&gt;&lt;p style=&quot;margin: 0px 0px 0px 4px ; font-size: 13px&quot;&gt;&lt;font style=&quot;font-size: 13px&quot;&gt;+ Mendata kontainer penimbunan()&lt;/font&gt;&lt;/p&gt;&lt;p style=&quot;margin: 0px 0px 0px 4px ; font-size: 13px&quot;&gt;&lt;font style=&quot;font-size: 13px&quot;&gt;+ Merekap data seluruh laporan()&lt;br&gt;&lt;/font&gt;&lt;/p&gt;" style="verticalAlign=top;align=left;overflow=fill;fontSize=12;fontFamily=Helvetica;html=1;fillColor=#FAE5C7;strokeColor=#0F8B8D;fontColor=#143642;" parent="1" vertex="1">
          <mxGeometry x="380" y="-800" width="280" height="160" as="geometry" />
        </mxCell>
        <mxCell id="eQw3OcEAn6oPx84qbfoO-10" value="" style="endArrow=open;endFill=1;endSize=12;html=1;exitX=1;exitY=0.5;exitDx=0;exitDy=0;labelBackgroundColor=#DAD2D8;strokeColor=#A8201A;fontColor=#143642;" parent="1" source="eQw3OcEAn6oPx84qbfoO-1" target="eQw3OcEAn6oPx84qbfoO-8" edge="1">
          <mxGeometry width="160" relative="1" as="geometry">
            <mxPoint x="170" y="-730" as="sourcePoint" />
            <mxPoint x="330" y="-730" as="targetPoint" />
          </mxGeometry>
        </mxCell>
        <mxCell id="eQw3OcEAn6oPx84qbfoO-11" value="" style="endArrow=open;endFill=1;endSize=12;html=1;exitX=0.5;exitY=1;exitDx=0;exitDy=0;entryX=0.5;entryY=0;entryDx=0;entryDy=0;labelBackgroundColor=#DAD2D8;strokeColor=#A8201A;fontColor=#143642;" parent="1" source="eQw3OcEAn6oPx84qbfoO-8" target="eQw3OcEAn6oPx84qbfoO-9" edge="1">
          <mxGeometry width="160" relative="1" as="geometry">
            <mxPoint x="159.17000000000002" y="-640" as="sourcePoint" />
            <mxPoint x="159.17000000000002" y="-550" as="targetPoint" />
          </mxGeometry>
        </mxCell>
      </root>
    </mxGraphModel>
  </diagram>
  <diagram id="cBXWfLgAfQ9afSPrOQsu" name="keluar">
    <mxGraphModel dx="1038" dy="1647" grid="1" gridSize="10" guides="1" tooltips="1" connect="1" arrows="1" fold="1" page="1" pageScale="1" pageWidth="850" pageHeight="1100" math="0" shadow="0">
      <root>
        <mxCell id="kXKcbXCf7MKJPl132Yhn-0" />
        <mxCell id="kXKcbXCf7MKJPl132Yhn-1" parent="kXKcbXCf7MKJPl132Yhn-0" />
        <mxCell id="kXKcbXCf7MKJPl132Yhn-2" value="&lt;p style=&quot;margin: 4px 0px 0px ; text-align: center ; font-size: 13px&quot;&gt;&lt;font style=&quot;font-size: 13px&quot;&gt;&lt;b&gt;Kegiatan 1&lt;br&gt;&lt;/b&gt;&lt;/font&gt;&lt;/p&gt;&lt;hr style=&quot;font-size: 13px&quot; size=&quot;1&quot;&gt;&lt;p style=&quot;margin: 0px 0px 0px 4px ; font-size: 13px&quot;&gt;&lt;font style=&quot;font-size: 13px&quot;&gt;+ Data &lt;/font&gt;&lt;font style=&quot;font-size: 13px&quot;&gt;&lt;font style=&quot;font-size: 13px&quot;&gt;SPPB&lt;/font&gt;&lt;/font&gt;&lt;/p&gt;&lt;hr style=&quot;font-size: 13px&quot; size=&quot;1&quot;&gt;&lt;p style=&quot;margin: 0px 0px 0px 4px ; font-size: 13px&quot;&gt;&lt;font style=&quot;font-size: 13px&quot;&gt;+ Dokumen Surat Persetujuan&lt;br&gt;&lt;/font&gt;&lt;/p&gt;&lt;p style=&quot;margin: 0px 0px 0px 4px ; font-size: 13px&quot;&gt;&lt;font style=&quot;font-size: 13px&quot;&gt;&amp;nbsp;&amp;nbsp; Pengeluaran Barang (SPPB) ()&lt;br&gt;&lt;/font&gt;&lt;/p&gt;" style="verticalAlign=top;align=left;overflow=fill;fontSize=12;fontFamily=Helvetica;html=1;fillColor=#FAE5C7;strokeColor=#0F8B8D;fontColor=#143642;" parent="kXKcbXCf7MKJPl132Yhn-1" vertex="1">
          <mxGeometry x="80" y="-980" width="280" height="160" as="geometry" />
        </mxCell>
        <mxCell id="kXKcbXCf7MKJPl132Yhn-3" value="&lt;p style=&quot;margin: 4px 0px 0px ; text-align: center ; font-size: 13px&quot;&gt;&lt;font style=&quot;font-size: 13px&quot;&gt;&lt;b&gt;Kegiatan 2&lt;br&gt;&lt;/b&gt;&lt;/font&gt;&lt;/p&gt;&lt;hr style=&quot;font-size: 13px&quot; size=&quot;1&quot;&gt;&lt;p style=&quot;margin: 0px 0px 0px 4px ; font-size: 13px&quot;&gt;&lt;font style=&quot;font-size: 13px&quot;&gt;+ Data Kontainer Keluar&lt;/font&gt;&lt;/p&gt;&lt;hr style=&quot;font-size: 13px&quot; size=&quot;1&quot;&gt;&lt;p style=&quot;margin: 0px 0px 0px 4px ; font-size: 13px&quot;&gt;&lt;font style=&quot;font-size: 13px&quot;&gt;+ Mencatat data kontainer keluar()&lt;/font&gt;&lt;/p&gt;" style="verticalAlign=top;align=left;overflow=fill;fontSize=12;fontFamily=Helvetica;html=1;fillColor=#FAE5C7;strokeColor=#0F8B8D;fontColor=#143642;" parent="kXKcbXCf7MKJPl132Yhn-1" vertex="1">
          <mxGeometry x="400" y="-980" width="280" height="160" as="geometry" />
        </mxCell>
        <mxCell id="kXKcbXCf7MKJPl132Yhn-4" value="&lt;p style=&quot;margin: 4px 0px 0px ; text-align: center ; font-size: 13px&quot;&gt;&lt;font style=&quot;font-size: 13px&quot;&gt;&lt;b&gt;Kegiatan 3&lt;br&gt;&lt;/b&gt;&lt;/font&gt;&lt;/p&gt;&lt;hr style=&quot;font-size: 13px&quot; size=&quot;1&quot;&gt;&lt;p style=&quot;margin: 0px 0px 0px 4px ; font-size: 13px&quot;&gt;&lt;font style=&quot;font-size: 13px&quot;&gt;+ SP2/Tila Cargo Keluar&lt;/font&gt;&lt;/p&gt;&lt;p style=&quot;margin: 0px 0px 0px 4px ; font-size: 13px&quot;&gt;&lt;font style=&quot;font-size: 13px&quot;&gt;+ Data Kontainer Penimbunan&lt;/font&gt;&lt;/p&gt;&lt;p style=&quot;margin: 0px 0px 0px 4px ; font-size: 13px&quot;&gt;&lt;font style=&quot;font-size: 13px&quot;&gt;+ Data Rekap Laporan&lt;br&gt;&lt;/font&gt;&lt;/p&gt;&lt;hr style=&quot;font-size: 13px&quot; size=&quot;1&quot;&gt;&lt;p style=&quot;margin: 0px 0px 0px 4px ; font-size: 13px&quot;&gt;&lt;font style=&quot;font-size: 13px&quot;&gt;+ Membuat SP2/Tila Cargo Keluar()&lt;/font&gt;&lt;/p&gt;&lt;p style=&quot;margin: 0px 0px 0px 4px ; font-size: 13px&quot;&gt;&lt;font style=&quot;font-size: 13px&quot;&gt;+ Mendata kontainer penimbunan()&lt;/font&gt;&lt;/p&gt;&lt;p style=&quot;margin: 0px 0px 0px 4px ; font-size: 13px&quot;&gt;&lt;font style=&quot;font-size: 13px&quot;&gt;+ Merekap data seluruh laporan()&lt;br&gt;&lt;/font&gt;&lt;/p&gt;" style="verticalAlign=top;align=left;overflow=fill;fontSize=12;fontFamily=Helvetica;html=1;fillColor=#FAE5C7;strokeColor=#0F8B8D;fontColor=#143642;" parent="kXKcbXCf7MKJPl132Yhn-1" vertex="1">
          <mxGeometry x="400" y="-790" width="280" height="160" as="geometry" />
        </mxCell>
        <mxCell id="kXKcbXCf7MKJPl132Yhn-5" value="" style="endArrow=open;endFill=1;endSize=12;html=1;labelBackgroundColor=#DAD2D8;strokeColor=#A8201A;fontColor=#143642;exitX=1;exitY=0.5;exitDx=0;exitDy=0;" parent="kXKcbXCf7MKJPl132Yhn-1" source="kXKcbXCf7MKJPl132Yhn-2" target="kXKcbXCf7MKJPl132Yhn-3" edge="1">
          <mxGeometry width="160" relative="1" as="geometry">
            <mxPoint x="370" y="-900" as="sourcePoint" />
            <mxPoint x="350" y="-710" as="targetPoint" />
          </mxGeometry>
        </mxCell>
        <mxCell id="kXKcbXCf7MKJPl132Yhn-6" value="" style="endArrow=open;endFill=1;endSize=12;html=1;exitX=0.5;exitY=1;exitDx=0;exitDy=0;entryX=0.5;entryY=0;entryDx=0;entryDy=0;labelBackgroundColor=#DAD2D8;strokeColor=#A8201A;fontColor=#143642;" parent="kXKcbXCf7MKJPl132Yhn-1" source="kXKcbXCf7MKJPl132Yhn-3" target="kXKcbXCf7MKJPl132Yhn-4" edge="1">
          <mxGeometry width="160" relative="1" as="geometry">
            <mxPoint x="219.17000000000002" y="-620" as="sourcePoint" />
            <mxPoint x="219.17000000000002" y="-530" as="targetPoint" />
          </mxGeometry>
        </mxCell>
      </root>
    </mxGraphModel>
  </diagram>
</mxfile>
